<svg version="1.2" xmlns="http://www.w3.org/2000/svg" viewBox="0 0 229 315" width="229" height="315"><defs><clipPath clipPathUnits="userSpaceOnUse" id="cp1"><path d="m15.41 3.8c0 0 74.98-14.56 88.59 14.62 16.63 35.66 125.37 288.79 125.37 288.79l-83.6 0.59c0 0 8.19-143.23-26.89-143.23-36.83 0-33.32 145.57-33.32 145.57l-84.56 4.83 95.08-224.06c0 0-6.43-33.32-29.81-34.49-15.9-0.8-49.11 7.01-49.11 7.01l39.17-30.98z"/></clipPath></defs><style>.a{fill:#72a1e5}.b{fill:#cc2936}.c{fill:#f26419}.d{fill:#fff}</style><g clip-path="url(#cp1)"><path class="a" d="m15.4 3.8c0 0 75-14.6 88.6 14.6 16.6 35.7 125.4 288.8 125.4 288.8l-83.6 0.6c0 0 8.2-143.2-26.9-143.2-36.8 0-33.3 145.5-33.3 145.5l-84.6 4.9 95.1-224.1c0 0-6.4-33.3-29.8-34.5-15.9-0.8-49.1 7-49.1 7l39.1-31z"/><path class="b" d="m236 307l-246 7 61-160h175z"/><path class="c" d="m68.7 154h94.4l-14.7-65.5-65.3 0.4z"/></g><path class="d" d="m81.5 42c-8.6 0-15.5-6.9-15.5-15.5 0-8.6 6.9-15.5 15.5-15.5 8.6 0 15.5 6.9 15.5 15.5 0 8.6-6.9 15.5-15.5 15.5z"/><path  d="m75 39c-4.4 0-8-3.6-8-8 0-4.4 3.6-8 8-8 4.4 0 8 3.6 8 8 0 4.4-3.6 8-8 8z"/></svg>