<svg version="1.2" xmlns="http://www.w3.org/2000/svg" viewBox="0 0 437 465" width="437" height="465"><style>.a{fill:#79c6ff}.b{fill:#fff}</style><path class="a" d="m218.5 437c-120.8 0-218.5-97.7-218.5-218.5 0-120.8 97.7-218.5 218.5-218.5 120.8 0 218.5 97.7 218.5 218.5 0 120.8-97.7 218.5-218.5 218.5z"/><path fill-rule="evenodd" class="b" d="m121.1 75.5v389.6h38.6v-230.5l52.3-47c0 0-53.4-0.2-52.3-64 0.8-48.3 37.8-48.1 60.1-48.1 21.3 0 59.5 0 60.1 53.8 0.6 58.3-52.1 58.3-52.1 58.3l51.4 46.6c0 0 37.8-46.6 37.8-103.3 0-33.5 0-105.9-97-105.9-98.9 0-98.9 50.5-98.9 50.5z"/></svg>